<?xml version="1.0" standalone="no"?>
<!DOCTYPE svg PUBLIC "-//W3C//DTD SVG 20010904//EN"
 "http://www.w3.org/TR/2001/REC-SVG-20010904/DTD/svg10.dtd">
<svg version="1.0" xmlns="http://www.w3.org/2000/svg"
 width="512.000000pt" height="512.000000pt" viewBox="0 0 512.000000 512.000000"
 preserveAspectRatio="xMidYMid meet">

<g transform="translate(0.000000,512.000000) scale(0.100000,-0.100000)"
fill="#000000" stroke="none">
<path d="M2260 4835 c-501 -70 -965 -300 -1320 -655 -357 -356 -590 -829 -654
-1328 -18 -142 -21 -398 -5 -540 93 -858 658 -1585 1474 -1899 109 -41 315
-97 445 -118 207 -35 564 -30 780 11 932 178 1656 902 1834 1836 41 213 46
572 11 778 -80 477 -303 916 -634 1250 -349 351 -774 570 -1271 656 -135 23
-520 28 -660 9z m562 -320 c357 -49 699 -197 978 -422 89 -72 257 -243 321
-328 284 -372 420 -797 406 -1270 -9 -292 -63 -521 -187 -782 -292 -615 -879
-1033 -1564 -1114 -123 -14 -431 -6 -541 14 -192 36 -357 89 -523 168 -614
291 -1032 878 -1113 1563 -15 126 -6 431 15 546 78 415 266 780 551 1065 305
304 721 508 1151 564 116 14 384 12 506 -4z"/>
<path d="M2250 3214 c-141 -38 -244 -151 -271 -300 -6 -34 -9 -219 -7 -472 4
-466 3 -461 78 -560 95 -126 253 -176 413 -131 21 6 207 122 413 259 390 261
409 276 458 380 17 37 21 64 21 145 0 89 -3 106 -27 156 -55 112 -85 132 -487
333 -427 214 -461 225 -591 190z m440 -472 c184 -92 339 -174 344 -183 24 -42
2 -60 -332 -282 -181 -120 -338 -220 -350 -223 -13 -4 -28 2 -41 15 -21 21
-21 29 -21 411 0 377 1 391 20 410 11 11 26 20 33 19 6 0 163 -76 347 -167z"/>
</g>
</svg>
